<?xml version="1.0" encoding="UTF-8"?>
<!DOCTYPE svg PUBLIC "-//W3C//DTD SVG 1.1//EN" "http://www.w3.org/Graphics/SVG/1.1/DTD/svg11.dtd">
<svg version="1.1" xmlns="http://www.w3.org/2000/svg" xmlns:xlink="http://www.w3.org/1999/xlink" x="0" y="0" width="543.489" height="290.764" viewBox="0, 0, 543.489, 290.764">
  <g id="LOGO" transform="translate(-88.255, -178.013)">
    <g>
      <path d="M316.102,315.18 L256.562,231.513 C256.562,231.513 251.641,227.514 259.435,227.513 C267.229,227.513 446.964,315.18 446.964,315.18 C446.964,315.18 456.692,316.847 449.96,321.513 C443.229,326.18 213.229,420.278 213.229,420.278 C213.229,420.278 207.931,418.18 207.931,414.847 C207.931,411.513 316.102,315.18 316.102,315.18 z" fill="#FFFFFF"/>
      <path d="M259.435,217.513 C263.587,217.513 272.063,221.091 294.996,231.574 C310.973,238.877 332.188,248.851 357.374,260.864 C358.388,261.347 359.407,261.833 360.431,262.322 C380.534,271.92 401.887,282.201 423.117,292.482 C430.547,296.08 437.432,299.421 443.599,302.42 C445.758,303.47 447.673,304.402 449.323,305.205 C449.911,305.492 449.586,305.334 450.297,305.68 C452.277,306.23 451.272,305.916 453.311,306.633 C457.173,308.153 460.14,310.288 461.673,314.635 C462.865,318.015 462.407,321.583 460.64,324.593 C459.44,326.637 457.768,328.269 455.658,329.732 C451.78,332.42 412.572,348.945 337.342,380.047 C336.416,380.43 336.416,380.43 335.49,380.813 C309.573,391.526 281.806,402.956 254.04,414.355 C244.321,418.344 235.297,422.045 227.199,425.363 C224.364,426.524 221.848,427.555 219.678,428.443 C218.919,428.754 218.477,428.935 217.696,429.255 C217.132,429.486 217.132,429.486 217.016,429.533 L213.29,431.057 L209.548,429.576 C209.126,429.409 208.574,429.165 207.923,428.839 C206.874,428.314 205.822,427.699 204.788,426.964 C200.758,424.101 197.931,420.314 197.931,414.847 C197.931,411.8 198.634,410.479 200.139,408.406 C200.56,407.827 201.043,407.243 201.627,406.585 C202.535,405.562 203.768,404.277 205.351,402.693 C208.204,399.839 212.265,395.945 217.459,391.073 C226.552,382.545 238.952,371.174 253.872,357.649 C254.346,357.219 254.823,356.786 255.302,356.353 C267.149,345.62 279.839,334.201 292.528,322.835 C295.937,319.782 299.348,316.73 302.761,313.681 L248.93,238.035 L248.189,237.244 C246.924,235.761 245.939,234.143 245.388,231.994 C244.159,227.194 246.134,222.174 250.611,219.529 C253.173,218.015 255.977,217.514 259.435,217.513 z M259.435,227.513 C251.641,227.514 256.562,231.513 256.562,231.513 L316.102,315.18 C316.102,315.18 207.931,411.513 207.931,414.847 C207.931,418.18 213.229,420.278 213.229,420.278 C213.229,420.278 443.229,326.18 449.96,321.513 C456.692,316.847 446.964,315.18 446.964,315.18 C446.964,315.18 267.229,227.513 259.435,227.513 z" fill="#000000"/>
      <path d="M259.435,227.513 C267.229,227.513 446.964,315.18 446.964,315.18 C446.964,315.18 456.692,316.847 449.96,321.513 C443.229,326.18 213.229,420.278 213.229,420.278 C213.229,420.278 207.931,418.18 207.931,414.847 C207.931,411.513 316.102,315.18 316.102,315.18 L256.562,231.513 C256.562,231.513 251.641,227.514 259.435,227.513 z M273.624,241.691 L322.62,310.542 L326.778,316.385 L321.422,321.154 C321.37,321.201 321.37,321.201 321.113,321.429 C320.758,321.746 320.758,321.746 320.211,322.234 C319.222,323.116 318.074,324.14 316.781,325.294 C313.087,328.592 308.971,332.272 304.537,336.243 C291.872,347.588 279.206,358.985 267.388,369.692 C266.91,370.125 266.434,370.556 265.961,370.985 C251.11,384.448 238.777,395.757 229.773,404.202 L228.542,405.359 C234.763,402.81 240.983,400.256 247.204,397.703 C274.958,386.309 302.712,374.884 328.614,364.178 C329.54,363.795 329.54,363.795 330.465,363.413 C365.826,348.634 401.359,334.251 436.517,318.992 L435.728,318.608 C429.569,315.613 422.693,312.276 415.272,308.682 C394.07,298.415 372.746,288.148 352.676,278.566 C351.654,278.078 350.637,277.593 349.625,277.11 C324.52,265.137 303.383,255.199 287.513,247.945 C282.899,245.825 278.263,243.753 273.624,241.691 z" fill="#000000"/>
      <path d="M316.102,315.18 L256.562,231.513 C256.562,231.513 251.641,227.514 259.435,227.513 C267.229,227.513 446.964,315.18 446.964,315.18 C446.964,315.18 456.692,316.847 449.96,321.513 C443.229,326.18 213.229,420.278 213.229,420.278 C213.229,420.278 207.931,418.18 207.931,414.847 C207.931,411.513 316.102,315.18 316.102,315.18 z" fill-opacity="0" stroke="#FFFFFF" stroke-width="5"/>
    </g>
    <g>
      <path d="M202.26,314.907 L536.614,314.907 C542.131,314.907 545.829,317.983 544.874,321.778 L530.459,379.036 C529.504,382.83 524.257,385.907 518.74,385.907 L184.386,385.907 C178.869,385.907 175.171,382.83 176.126,379.036 L190.541,321.778 C191.496,317.983 196.743,314.907 202.26,314.907 z" fill="#000000"/>
      <path d="M202.26,314.907 L536.614,314.907 C542.131,314.907 545.829,317.983 544.874,321.778 L530.459,379.036 C529.504,382.83 524.257,385.907 518.74,385.907 L184.386,385.907 C178.869,385.907 175.171,382.83 176.126,379.036 L190.541,321.778 C191.496,317.983 196.743,314.907 202.26,314.907 z" fill-opacity="0" stroke="#000000" stroke-width="7"/>
      <path d="M536.614,314.906 C542.131,314.907 545.829,317.983 544.874,321.778 L530.459,379.036 C529.504,382.83 524.257,385.907 518.74,385.907 L184.386,385.906 C178.869,385.907 175.171,382.83 176.126,379.036 L190.541,321.777 C191.496,317.983 196.743,314.907 202.26,314.907 L536.614,314.906 z M536.614,317.906 L202.26,317.906 C197.989,317.907 194.023,320.231 193.45,322.51 L179.035,379.768 C178.649,381.302 180.578,382.907 184.386,382.906 L518.74,382.906 C523.011,382.907 526.977,380.582 527.55,378.303 L541.965,321.045 C542.351,319.511 540.422,317.907 536.614,317.906 z" fill="#FFFFFF"/>
    </g>
    <text transform="matrix(1, 0, -0.252, 1, 360, 366.5)">
      <tspan x="-136.816" y="-0" font-family="Phosphate-Inline" font-size="48" kerning="10" fill="#FFFFFF">DINEDICE</tspan>
    </text>
    <g id="Lights">
      <path d="M203.396,332.697 C201.167,332.697 199.36,330.89 199.36,328.662 C199.36,326.433 201.167,324.627 203.396,324.627 C205.624,324.627 207.431,326.433 207.431,328.662 C207.431,330.89 205.624,332.697 203.396,332.697 z" fill="#FFFFFF"/>
      <path d="M198.204,353.111 C195.975,353.111 194.169,351.304 194.169,349.076 C194.169,346.847 195.975,345.04 198.204,345.04 C200.433,345.04 202.239,346.847 202.239,349.076 C202.239,351.304 200.433,353.111 198.204,353.111 z" fill="#FFFFFF"/>
      <path d="M192.3,374 C190.071,374 188.265,372.193 188.265,369.964 C188.265,367.736 190.071,365.929 192.3,365.929 C194.529,365.929 196.335,367.736 196.335,369.964 C196.335,372.193 194.529,374 192.3,374 z" fill="#FFFFFF"/>
      <path d="M528.862,333.884 C526.634,333.884 524.827,332.077 524.827,329.849 C524.827,327.62 526.634,325.813 528.862,325.813 C531.091,325.813 532.898,327.62 532.898,329.849 C532.898,332.077 531.091,333.884 528.862,333.884 z" fill="#FFFFFF"/>
      <path d="M523.671,354.298 C521.442,354.298 519.635,352.491 519.635,350.263 C519.635,348.034 521.442,346.227 523.671,346.227 C525.899,346.227 527.706,348.034 527.706,350.263 C527.706,352.491 525.899,354.298 523.671,354.298 z" fill="#FFFFFF"/>
      <path d="M517.767,375.187 C515.538,375.187 513.731,373.38 513.731,371.151 C513.731,368.923 515.538,367.116 517.767,367.116 C519.995,367.116 521.802,368.923 521.802,371.151 C521.802,373.38 519.995,375.187 517.767,375.187 z" fill="#FFFFFF"/>
    </g>
  </g>
</svg>
